<svg xmlns="http://www.w3.org/2000/svg" aria-hidden="true" style="position:absolute;width:0;height:0;overflow:hidden">
  <defs>

<symbol id="icon-hero-arrow" viewBox="0 0 32 32">
<path fill="#00b068" style="fill: var(--color1, #00b068)" d="M1.067 14.933c-0.589 0-1.067 0.478-1.067 1.067s0.478 1.067 1.067 1.067v0-2.133zM31.687 16.754c0.193-0.193 0.312-0.46 0.312-0.754s-0.119-0.561-0.312-0.754l-6.788-6.788c-0.194-0.201-0.466-0.326-0.767-0.326-0.589 0-1.067 0.478-1.067 1.067 0 0.301 0.125 0.573 0.325 0.767l0 0 6.034 6.034-6.034 6.034c-0.185 0.192-0.299 0.453-0.299 0.741 0 0.589 0.478 1.067 1.067 1.067 0.288 0 0.549-0.114 0.741-0.3l-0 0 6.788-6.788zM1.067 17.067h29.867v-2.133h-29.867v2.133z"></path>
</symbol>

<symbol id="icon-reviews-arrow-right" viewBox="0 0 32 32">
<path stroke-linejoin="round" stroke-linecap="round" stroke-miterlimit="4" stroke-width="2.6667" d="M5.333 16h21.333M18.667 8l8 8-8 8"></path>
</symbol>

<symbol id="icon-benefits-brush" viewBox="0 0 32 32">
<path fill="none" stroke="#00b068" style="stroke: var(--color1, #00b068)" stroke-linejoin="round" stroke-linecap="round" stroke-miterlimit="4" stroke-width="2.6667" d="M17.037 20l-5.037-5.036M2.667 29.333c2.667 0 6.144 0.453 7.967-1.368 0.845-0.845 1.367-2.011 1.367-3.3 0-2.577-2.089-4.667-4.667-4.667-1.289 0-2.455 0.522-3.3 1.367v0c-1.823 1.823 0 5.301-1.367 7.968z"></path>
<path fill="none" stroke="#00b068" style="stroke: var(--color1, #00b068)" stroke-linejoin="round" stroke-linecap="round" stroke-miterlimit="4" stroke-width="2.6667" d="M10.667 21.333c-0.655-0.656-0.983-0.984-1.168-1.327-0.201-0.366-0.32-0.802-0.32-1.267 0-0.5 0.138-0.968 0.377-1.368l-0.007 0.012c0.197-0.336 0.537-0.651 1.217-1.28l13.157-12.184c0.526-0.502 1.24-0.811 2.027-0.811 1.623 0 2.939 1.316 2.939 2.939 0 0.786-0.309 1.5-0.812 2.028l0.001-0.001-12.183 13.157c-0.631 0.68-0.945 1.020-1.28 1.217-0.388 0.233-0.856 0.371-1.357 0.371-0.464 0-0.901-0.119-1.281-0.327l0.014 0.007c-0.343-0.185-0.671-0.512-1.325-1.168z"></path>
</symbol>

<symbol id="icon-benefits-time" viewBox="0 0 32 32">
<path fill="none" stroke="#00b068" style="stroke: var(--color1, #00b068)" stroke-linejoin="round" stroke-linecap="round" stroke-miterlimit="4" stroke-width="2.9091" d="M24.964 1.455h-17.929c-0.672 0-1.217 0.545-1.217 1.217v0c0 0 0 0 0 0 0 4.036 1.636 7.69 4.281 10.336l1.775 1.775c0.175 0.175 0.263 0.263 0.326 0.349 0.18 0.239 0.288 0.542 0.288 0.869s-0.108 0.63-0.291 0.873l0.003-0.004c-0.104 0.127-0.211 0.241-0.324 0.347l-0.002 0.002-1.775 1.773c-2.645 2.645-4.281 6.299-4.281 10.336 0 0 0 0 0 0v-0c0 0.672 0.545 1.217 1.217 1.217h17.929c0.672 0 1.217-0.545 1.217-1.217v0c0-0 0-0 0-0 0-4.036-1.636-7.69-4.281-10.336l-1.775-1.775c-0.175-0.175-0.263-0.263-0.326-0.349-0.18-0.239-0.288-0.542-0.288-0.869s0.108-0.63 0.291-0.873l-0.003 0.004c0.063-0.084 0.15-0.172 0.326-0.349l1.775-1.773c2.645-2.645 4.281-6.3 4.281-10.336 0-0 0-0 0-0v0c0-0.672-0.545-1.217-1.217-1.217v0z"></path>
</symbol>

<symbol id="icon-benefits-message" viewBox="0 0 32 32">
<path fill="none" stroke="#00b068" style="stroke: var(--color1, #00b068)" stroke-linejoin="round" stroke-linecap="round" stroke-miterlimit="4" stroke-width="2.6667" d="M8.125 14.972c-0.080-0.49-0.125-1.056-0.125-1.631 0-0.003 0-0.005 0-0.008v0c0-5.891 4.807-10.667 10.737-10.667 5.929 0 10.736 4.776 10.736 10.667 0 0.004 0 0.008 0 0.012 0 1.355-0.254 2.65-0.718 3.84l0.025-0.072c-0.093 0.243-0.14 0.365-0.16 0.46-0.019 0.077-0.031 0.166-0.032 0.258v0.001c-0.003 0.097 0.011 0.204 0.037 0.419l0.537 4.36c0.057 0.473 0.087 0.709 0.008 0.88-0.070 0.151-0.19 0.269-0.338 0.334l-0.004 0.002c-0.173 0.073-0.408 0.040-0.88-0.029l-4.245-0.623c-0.223-0.032-0.333-0.049-0.435-0.048-0.003-0-0.006-0-0.009-0-0.091 0-0.18 0.010-0.266 0.030l0.008-0.002c-0.191 0.052-0.35 0.108-0.504 0.172l0.026-0.010c-1.128 0.432-2.433 0.683-3.796 0.683-0.575 0-1.14-0.045-1.692-0.13l0.061 0.008M10.176 29.333c3.953 0 7.157-3.283 7.157-7.333s-3.204-7.333-7.157-7.333c-3.953 0-7.159 3.283-7.159 7.333 0 0.813 0.129 1.597 0.369 2.329 0.1 0.309 0.151 0.464 0.168 0.569 0.017 0.111 0.020 0.173 0.013 0.284-0.007 0.107-0.033 0.227-0.087 0.468l-0.815 3.683 3.993-0.545c0.217-0.029 0.327-0.045 0.421-0.044 0.101 0 0.153 0.007 0.253 0.027 0.093 0.017 0.231 0.067 0.508 0.164 0.693 0.253 1.493 0.399 2.328 0.399 0.002 0 0.004 0 0.006 0h-0z"></path>
</symbol>

<symbol id="icon-tech-skills-rectangle" viewBox="0 0 32 32">
<path fill="#00b068" style="fill: var(--color1, #00b068)" d="M24 0h-16c-4.418 0-8 3.582-8 8v16c0 4.418 3.582 8 8 8h16c4.418 0 8-3.582 8-8v-16c0-4.418-3.582-8-8-8z"></path>
</symbol>

<symbol id="icon-benefits-user" viewBox="0 0 32 32">
<path fill="none" stroke="#00b068" style="stroke: var(--color1, #00b068)" stroke-linejoin="round" stroke-linecap="round" stroke-miterlimit="4" stroke-width="2.6667" d="M26.667 28c0-1.861 0-2.791-0.229-3.548-0.529-1.708-1.848-3.026-3.518-3.546l-0.038-0.010c-0.757-0.229-1.687-0.229-3.548-0.229h-6.667c-1.861 0-2.791 0-3.548 0.229-1.708 0.529-3.027 1.848-3.546 3.518l-0.010 0.038c-0.229 0.757-0.229 1.687-0.229 3.548M16 16c3.314 0 6-2.686 6-6s-2.686-6-6-6v0c-3.314 0-6 2.686-6 6s2.686 6 6 6v0z"></path>
</symbol>

<symbol id="icon-my-projects-arrow" viewBox="0 0 32 32">
<path fill="none" stroke="#00b068" style="stroke: var(--color1, #00b068)" stroke-linejoin="round" stroke-linecap="round" stroke-miterlimit="4" stroke-width="3.5556" d="M3.111 28.889l25.778-25.778M28.889 3.111h-24M28.889 3.111v24"></path>
</symbol>

<symbol id="icon-work-together-email" viewBox="0 0 32 32">
<path fill="none" stroke="#00b068" style="stroke: var(--color1, #00b068)" stroke-linejoin="round" stroke-linecap="round" stroke-miterlimit="4" stroke-width="1.4545" d="M30.182 8.364v15.273c0 1.807-1.465 3.273-3.273 3.273v0h-21.818c-1.807 0-3.273-1.465-3.273-3.273v0-15.273M30.182 8.364c0-1.807-1.465-3.273-3.273-3.273v0h-21.818c-1.807 0-3.273 1.465-3.273 3.273v0M30.182 8.364v0.353c0 0 0 0 0 0 0 1.172-0.616 2.201-1.543 2.778l-0.014 0.008-10.909 6.713c-0.488 0.305-1.081 0.486-1.716 0.486s-1.228-0.181-1.73-0.494l0.014 0.008-10.909-6.711c-0.94-0.586-1.556-1.614-1.556-2.787 0-0 0-0 0-0v0-0.355"></path>
</symbol>

<symbol id="icon-close-x" viewBox="0 0 32 32">
<path stroke-linejoin="round" stroke-linecap="round" stroke-miterlimit="4" stroke-width="2" d="M24 8l-16 16"></path>
<path stroke-linejoin="round" stroke-linecap="round" stroke-miterlimit="4" stroke-width="2" d="M8 8l16 16"></path>
</symbol>

<symbol id="icon-header-menu" viewBox="0 0 32 32">
<path d="M5.334 23.027v-1.333h21.333v1.333h-21.333zM5.334 16.667v-1.333h21.333v1.333h-21.333zM5.334 10.307v-1.333h21.333v1.333h-21.333z"></path>
</symbol>

<symbol id="icon-work-together-cross" viewBox="0 0 32 32">
<path stroke-linejoin="round" stroke-linecap="round" stroke-miterlimit="4" stroke-width="2.6667" d="M24 8l-16 16M8 8l16 16"></path>
</symbol>

<symbol id="icon-ep-success" viewBox="0 0 32 32">
  <path fill="#00b068" style="fill: var(--color1, #00b068)"
    d="M16 2c7.732 0 14 6.268 14 14s-6.268 14-14 14v0c-7.732 0-14-6.268-14-14s6.268-14 14-14v0zM14.256 18.762l-3.11-3.112c-0.217-0.217-0.517-0.352-0.849-0.352-0.663 0-1.201 0.538-1.201 1.201 0 0.332 0.134 0.632 0.352 0.849l3.96 3.96c0.217 0.218 0.517 0.354 0.849 0.354s0.632-0.135 0.849-0.354l8.2-8.202c0.222-0.218 0.359-0.521 0.359-0.856 0-0.663-0.537-1.2-1.2-1.2-0.335 0-0.637 0.137-0.855 0.358l-7.354 7.354z">
  </path>
</symbol>

<symbol id="icon-work-together-phone" viewBox="0 0 32 32">
<path fill="none" stroke="#00b068" style="stroke: var(--color1, #00b068)" stroke-linejoin="round" stroke-linecap="round" stroke-miterlimit="4" stroke-width="1.3333" d="M3 9c0 11.045 8.955 20 20 20h3c1.657 0 3-1.343 3-3v0-1.829c0-0.688-0.468-1.288-1.136-1.455l-5.897-1.475c-0.587-0.147-1.203 0.073-1.564 0.556l-1.293 1.724c-0.376 0.501-1.025 0.723-1.613 0.507-4.43-1.661-7.863-5.094-9.488-9.413l-0.036-0.111c-0.216-0.588 0.005-1.237 0.507-1.613l1.724-1.293c0.484-0.361 0.703-0.979 0.556-1.564l-1.475-5.897c-0.169-0.657-0.756-1.136-1.455-1.136h-1.829c-1.657 0-3 1.343-3 3v0 3z"></path>
</symbol>

<symbol id="icon-work-together-point" viewBox="0 0 32 32">
<path fill="none" stroke="#00b068" style="stroke: var(--color1, #00b068)" stroke-linejoin="round" stroke-linecap="round" stroke-miterlimit="4" stroke-width="1.3333" d="M20 14c0 2.209-1.791 4-4 4s-4-1.791-4-4v0c0-2.209 1.791-4 4-4s4 1.791 4 4v0 0z"></path>
<path fill="none" stroke="#00b068" style="stroke: var(--color1, #00b068)" stroke-linejoin="round" stroke-linecap="round" stroke-miterlimit="4" stroke-width="1.3333" d="M26 14c0 9.523-10 15-10 15s-10-5.477-10-15c0-5.523 4.477-10 10-10s10 4.477 10 10v0 0z"></path>
</symbol>

<symbol id="icon-my-projects-load-line" viewBox="0 0 1712 32">
<path fill="#00b068" style="fill: var(--color1, #00b068)" d="M16 0c-8.837 0-16 7.163-16 16s7.163 16 16 16v-32zM16 32l1696 0v-32l-1696-0v32z"></path>
</symbol>


<symbol id="icon-reviews-left-arrow" viewBox="0 0 32 32">
<path fill="none" stroke="#e4e5e6" style="stroke: var(--color2, #e4e5e6)" stroke-linejoin="round" stroke-linecap="round" stroke-miterlimit="4" stroke-width="2.6667" d="M26.667 16h-21.333"></path>
<path fill="none" stroke="#e4e5e6" style="stroke: var(--color2, #e4e5e6)" stroke-linejoin="round" stroke-linecap="round" stroke-miterlimit="4" stroke-width="2.6667" d="M13.333 24l-8-8 8-8"></path>
</symbol>

<symbol id="icon-ep_success-filled" viewBox="0 0 32 32">
<path fill="#00b068" style="fill: var(--color1, #00b068)" d="M16 2c7.732 0 14 6.268 14 14s-6.268 14-14 14v0c-7.732 0-14-6.268-14-14s6.268-14 14-14v0zM14.256 18.762l-3.11-3.112c-0.217-0.217-0.517-0.352-0.849-0.352-0.663 0-1.201 0.538-1.201 1.201 0 0.332 0.134 0.632 0.352 0.849l3.96 3.96c0.217 0.218 0.517 0.354 0.849 0.354s0.632-0.135 0.849-0.354l8.2-8.202c0.222-0.218 0.359-0.521 0.359-0.856 0-0.663-0.537-1.2-1.2-1.2-0.335 0-0.637 0.137-0.855 0.358l-7.354 7.354z"></path>
</symbol>

<symbol id="icon-ellipse" viewBox="0 0 22 32">
<path fill="#00b068" style="fill: var(--color1, #00b068)" d="M0 30.669c5.651-2.469 9.6-8.108 9.6-14.669s-3.949-12.2-9.6-14.669c1.96-0.856 4.124-1.331 6.4-1.331 8.837 0 16 7.163 16 16s-7.163 16-16 16c-2.276 0-4.44-0.475-6.4-1.331z"></path>
</symbol>

<symbol id="icon-faq-arrow-down-ver-2" viewBox="0 0 50 32">
<path stroke-linejoin="miter" stroke-linecap="round" stroke-miterlimit="4" stroke-width="7.1111" d="M46.222 3.556l-21.333 21.333-21.333-21.333"></path>
</symbol>

<symbol id="icon-faq-arrow-up-ver-2" viewBox="0 0 50 32">
<path stroke-linejoin="miter" stroke-linecap="round" stroke-miterlimit="4" stroke-width="7.1111" d="M46.222 28.444l-21.333-21.333-21.333 21.333"></path>
</symbol>

  </defs>
  </svg>
